<svg version="1.1" xmlns="http://www.w3.org/2000/svg" xmlns:xlink="http://www.w3.org/1999/xlink" width="926" height="572"><defs/><g><g transform="translate(10,-61) scale(1,1)"><path fill="#C0C0C0" stroke="none" d="M 616 95 C 616 85.6111584 647.5639216 78 686.5 78 C 725.4360784 78 757 85.6111584 757 95 C 757 104.3888416 725.4360784 112 686.5 112 C 647.5639216 112 616 104.3888416 616 95 Z" opacity="0.2"/></g><g transform="translate(10,-61) scale(1,1)"><path fill="#ffffff" stroke="none" d="M 609 88 C 609 78.6111584 640.5639216 71 679.5 71 C 718.4360784 71 750 78.6111584 750 88 C 750 97.3888416 718.4360784 105 679.5 105 C 640.5639216 105 609 97.3888416 609 88 Z"/></g><g transform="translate(10,-61) scale(1,1)"><path fill="none" stroke="#000000" d="M 609 88 C 609 78.6111584 640.5639216 71 679.5 71 C 718.4360784 71 750 78.6111584 750 88 C 750 97.3888416 718.4360784 105 679.5 105 C 640.5639216 105 609 97.3888416 609 88 Z" stroke-miterlimit="10" stroke-dasharray="5"/></g><g transform="translate(10,-61) scale(1,1)"><g><path fill="none" stroke="none"/><text fill="#000000" stroke="none" font-family="Arial" font-size="13px" font-style="normal" font-weight="bold" text-decoration="none" x="642" y="95">CRUD задач</text></g></g><g transform="translate(10,-61) scale(1,1)"><path fill="#C0C0C0" stroke="none" d="M 140 95 C 140 85.6111584 168.8776304 78 204.5 78 C 240.1223696 78 269 85.6111584 269 95 C 269 104.3888416 240.1223696 112 204.5 112 C 168.8776304 112 140 104.3888416 140 95 Z" opacity="0.2"/></g><g transform="translate(10,-61) scale(1,1)"><path fill="#ffffff" stroke="none" d="M 133 88 C 133 78.6111584 161.8776304 71 197.5 71 C 233.1223696 71 262 78.6111584 262 88 C 262 97.3888416 233.1223696 105 197.5 105 C 161.8776304 105 133 97.3888416 133 88 Z"/></g><g transform="translate(10,-61) scale(1,1)"><path fill="none" stroke="#000000" d="M 133 88 C 133 78.6111584 161.8776304 71 197.5 71 C 233.1223696 71 262 78.6111584 262 88 C 262 97.3888416 233.1223696 105 197.5 105 C 161.8776304 105 133 97.3888416 133 88 Z" stroke-miterlimit="10"/></g><g transform="translate(10,-61) scale(1,1)"><g><path fill="none" stroke="none"/><text fill="#000000" stroke="none" font-family="Arial" font-size="13px" font-style="normal" font-weight="bold" text-decoration="none" x="160" y="95">CRUD задач</text></g></g><g transform="translate(10,-61) scale(1,1)"><path fill="none" stroke="#000000" d="M 608 88 L 263 88" stroke-miterlimit="10" stroke-dasharray="3"/></g><g transform="translate(10,-61) scale(1,1)"><path fill="none" stroke="#000000" d="M 273.16267485762415 83.79048224398402 L 263 88 L 273.16267485762415 92.20951775601598" stroke-miterlimit="10"/></g><g transform="translate(10,-61) scale(1,1)"><g><path fill="none" stroke="none"/><text fill="#000000" stroke="none" font-family="Arial" font-size="13px" font-style="normal" font-weight="normal" text-decoration="none" x="413" y="109">«trace»</text></g></g><g transform="translate(10,-61) scale(1,1)"><path fill="#C0C0C0" stroke="none" d="M 113 169 C 113 159.6111584 154.8613712 152 206.5 152 C 258.1386288 152 300 159.6111584 300 169 C 300 178.3888416 258.1386288 186 206.5 186 C 154.8613712 186 113 178.3888416 113 169 Z" opacity="0.2"/></g><g transform="translate(10,-61) scale(1,1)"><path fill="#ffffff" stroke="none" d="M 106 162 C 106 152.6111584 147.8613712 145 199.5 145 C 251.1386288 145 293 152.6111584 293 162 C 293 171.3888416 251.1386288 179 199.5 179 C 147.8613712 179 106 171.3888416 106 162 Z"/></g><g transform="translate(10,-61) scale(1,1)"><path fill="none" stroke="#000000" d="M 106 162 C 106 152.6111584 147.8613712 145 199.5 145 C 251.1386288 145 293 152.6111584 293 162 C 293 171.3888416 251.1386288 179 199.5 179 C 147.8613712 179 106 171.3888416 106 162 Z" stroke-miterlimit="10"/></g><g transform="translate(10,-61) scale(1,1)"><g><path fill="none" stroke="none"/><text fill="#000000" stroke="none" font-family="Arial" font-size="13px" font-style="normal" font-weight="bold" text-decoration="none" x="145" y="169">CRUD сотрудникa</text></g></g><g transform="translate(10,-61) scale(1,1)"><path fill="#C0C0C0" stroke="none" d="M 593 169 C 593 159.6111584 637.3238048 152 692 152 C 746.6761952 152 791 159.6111584 791 169 C 791 178.3888416 746.6761952 186 692 186 C 637.3238048 186 593 178.3888416 593 169 Z" opacity="0.2"/></g><g transform="translate(10,-61) scale(1,1)"><path fill="#ffffff" stroke="none" d="M 586 162 C 586 152.6111584 630.3238048 145 685 145 C 739.6761952 145 784 152.6111584 784 162 C 784 171.3888416 739.6761952 179 685 179 C 630.3238048 179 586 171.3888416 586 162 Z"/></g><g transform="translate(10,-61) scale(1,1)"><path fill="none" stroke="#000000" d="M 586 162 C 586 152.6111584 630.3238048 145 685 145 C 739.6761952 145 784 152.6111584 784 162 C 784 171.3888416 739.6761952 179 685 179 C 630.3238048 179 586 171.3888416 586 162 Z" stroke-miterlimit="10" stroke-dasharray="5"/></g><g transform="translate(10,-61) scale(1,1)"><g><path fill="none" stroke="none"/><text fill="#000000" stroke="none" font-family="Arial" font-size="13px" font-style="normal" font-weight="bold" text-decoration="none" x="627" y="169">CRUD сотрудников</text></g></g><g transform="translate(10,-61) scale(1,1)"><path fill="none" stroke="#000000" d="M 585 162 L 294 162" stroke-miterlimit="10" stroke-dasharray="3"/></g><g transform="translate(10,-61) scale(1,1)"><path fill="none" stroke="#000000" d="M 304.16267485762415 157.790482243984 L 294 162 L 304.16267485762415 166.209517756016" stroke-miterlimit="10"/></g><g transform="translate(10,-61) scale(1,1)"><g><path fill="none" stroke="none"/><text fill="#000000" stroke="none" font-family="Arial" font-size="13px" font-style="normal" font-weight="normal" text-decoration="none" x="417" y="181">«trace»</text></g></g><g transform="translate(10,-61) scale(1,1)"><path fill="#C0C0C0" stroke="none" d="M 86 243 C 86 233.6111584 140.1735392 226 207 226 C 273.8264608 226 328 233.6111584 328 243 C 328 252.3888416 273.8264608 260 207 260 C 140.1735392 260 86 252.3888416 86 243 Z" opacity="0.2"/></g><g transform="translate(10,-61) scale(1,1)"><path fill="#ffffff" stroke="none" d="M 79 236 C 79 226.6111584 133.1735392 219 200 219 C 266.8264608 219 321 226.6111584 321 236 C 321 245.3888416 266.8264608 253 200 253 C 133.1735392 253 79 245.3888416 79 236 Z"/></g><g transform="translate(10,-61) scale(1,1)"><path fill="none" stroke="#000000" d="M 79 236 C 79 226.6111584 133.1735392 219 200 219 C 266.8264608 219 321 226.6111584 321 236 C 321 245.3888416 266.8264608 253 200 253 C 133.1735392 253 79 245.3888416 79 236 Z" stroke-miterlimit="10"/></g><g transform="translate(10,-61) scale(1,1)"><g><path fill="none" stroke="none"/><text fill="#000000" stroke="none" font-family="Arial" font-size="13px" font-style="normal" font-weight="bold" text-decoration="none" x="128.5" y="243">Просмотр списка задач</text></g></g><g transform="translate(10,-61) scale(1,1)"><path fill="#C0C0C0" stroke="none" d="M 572 243 C 572 233.6111584 626.1735392 226 693 226 C 759.8264608 226 814 233.6111584 814 243 C 814 252.3888416 759.8264608 260 693 260 C 626.1735392 260 572 252.3888416 572 243 Z" opacity="0.2"/></g><g transform="translate(10,-61) scale(1,1)"><path fill="#ffffff" stroke="none" d="M 565 236 C 565 226.6111584 619.1735392 219 686 219 C 752.8264608 219 807 226.6111584 807 236 C 807 245.3888416 752.8264608 253 686 253 C 619.1735392 253 565 245.3888416 565 236 Z"/></g><g transform="translate(10,-61) scale(1,1)"><path fill="none" stroke="#000000" d="M 565 236 C 565 226.6111584 619.1735392 219 686 219 C 752.8264608 219 807 226.6111584 807 236 C 807 245.3888416 752.8264608 253 686 253 C 619.1735392 253 565 245.3888416 565 236 Z" stroke-miterlimit="10" stroke-dasharray="5"/></g><g transform="translate(10,-61) scale(1,1)"><g><path fill="none" stroke="none"/><text fill="#000000" stroke="none" font-family="Arial" font-size="13px" font-style="normal" font-weight="bold" text-decoration="none" x="614.5" y="243">Просмотр списка задач</text></g></g><g transform="translate(10,-61) scale(1,1)"><path fill="#C0C0C0" stroke="none" d="M 53 317 C 53 307.6111584 122.6197136 300 208.5 300 C 294.3802864 300 364 307.6111584 364 317 C 364 326.3888416 294.3802864 334 208.5 334 C 122.6197136 334 53 326.3888416 53 317 Z" opacity="0.2"/></g><g transform="translate(10,-61) scale(1,1)"><path fill="#ffffff" stroke="none" d="M 46 310 C 46 300.6111584 115.6197136 293 201.5 293 C 287.3802864 293 357 300.6111584 357 310 C 357 319.3888416 287.3802864 327 201.5 327 C 115.6197136 327 46 319.3888416 46 310 Z"/></g><g transform="translate(10,-61) scale(1,1)"><path fill="none" stroke="#000000" d="M 46 310 C 46 300.6111584 115.6197136 293 201.5 293 C 287.3802864 293 357 300.6111584 357 310 C 357 319.3888416 287.3802864 327 201.5 327 C 115.6197136 327 46 319.3888416 46 310 Z" stroke-miterlimit="10"/></g><g transform="translate(10,-61) scale(1,1)"><g><path fill="none" stroke="none"/><text fill="#000000" stroke="none" font-family="Arial" font-size="13px" font-style="normal" font-weight="bold" text-decoration="none" x="109.5" y="317">Просмотр списка сотрудников</text></g></g><g transform="translate(10,-61) scale(1,1)"><path fill="#C0C0C0" stroke="none" d="M 539 317 C 539 307.6111584 608.6197136 300 694.5 300 C 780.3802864 300 850 307.6111584 850 317 C 850 326.3888416 780.3802864 334 694.5 334 C 608.6197136 334 539 326.3888416 539 317 Z" opacity="0.2"/></g><g transform="translate(10,-61) scale(1,1)"><path fill="#ffffff" stroke="none" d="M 532 310 C 532 300.6111584 601.6197136 293 687.5 293 C 773.3802864 293 843 300.6111584 843 310 C 843 319.3888416 773.3802864 327 687.5 327 C 601.6197136 327 532 319.3888416 532 310 Z"/></g><g transform="translate(10,-61) scale(1,1)"><path fill="none" stroke="#000000" d="M 532 310 C 532 300.6111584 601.6197136 293 687.5 293 C 773.3802864 293 843 300.6111584 843 310 C 843 319.3888416 773.3802864 327 687.5 327 C 601.6197136 327 532 319.3888416 532 310 Z" stroke-miterlimit="10" stroke-dasharray="5"/></g><g transform="translate(10,-61) scale(1,1)"><g><path fill="none" stroke="none"/><text fill="#000000" stroke="none" font-family="Arial" font-size="13px" font-style="normal" font-weight="bold" text-decoration="none" x="595.5" y="317">Просмотр списка сотрудников</text></g></g><g transform="translate(10,-61) scale(1,1)"><path fill="#C0C0C0" stroke="none" d="M 53 391 C 53 381.6111584 122.8435712 374 209 374 C 295.1564288 374 365 381.6111584 365 391 C 365 400.3888416 295.1564288 408 209 408 C 122.8435712 408 53 400.3888416 53 391 Z" opacity="0.2"/></g><g transform="translate(10,-61) scale(1,1)"><path fill="#ffffff" stroke="none" d="M 46 384 C 46 374.6111584 115.8435712 367 202 367 C 288.1564288 367 358 374.6111584 358 384 C 358 393.3888416 288.1564288 401 202 401 C 115.8435712 401 46 393.3888416 46 384 Z"/></g><g transform="translate(10,-61) scale(1,1)"><path fill="none" stroke="#000000" d="M 46 384 C 46 374.6111584 115.8435712 367 202 367 C 288.1564288 367 358 374.6111584 358 384 C 358 393.3888416 288.1564288 401 202 401 C 115.8435712 401 46 393.3888416 46 384 Z" stroke-miterlimit="10"/></g><g transform="translate(10,-61) scale(1,1)"><g><path fill="none" stroke="none"/><text fill="#000000" stroke="none" font-family="Arial" font-size="13px" font-style="normal" font-weight="bold" text-decoration="none" x="109.5" y="391">Просмотр рабочего календаря</text></g></g><g transform="translate(10,-61) scale(1,1)"><path fill="#C0C0C0" stroke="none" d="M 40 465 C 40 455.6111584 117.0070144 448 212 448 C 306.9929856 448 384 455.6111584 384 465 C 384 474.3888416 306.9929856 482 212 482 C 117.0070144 482 40 474.3888416 40 465 Z" opacity="0.2"/></g><g transform="translate(10,-61) scale(1,1)"><path fill="#ffffff" stroke="none" d="M 33 458 C 33 448.6111584 110.0070144 441 205 441 C 299.9929856 441 377 448.6111584 377 458 C 377 467.3888416 299.9929856 475 205 475 C 110.0070144 475 33 467.3888416 33 458 Z"/></g><g transform="translate(10,-61) scale(1,1)"><path fill="none" stroke="#000000" d="M 33 458 C 33 448.6111584 110.0070144 441 205 441 C 299.9929856 441 377 448.6111584 377 458 C 377 467.3888416 299.9929856 475 205 475 C 110.0070144 475 33 467.3888416 33 458 Z" stroke-miterlimit="10"/></g><g transform="translate(10,-61) scale(1,1)"><g><path fill="none" stroke="none"/><text fill="#000000" stroke="none" font-family="Arial" font-size="13px" font-style="normal" font-weight="bold" text-decoration="none" x="102.5" y="465">Составление рабочего календаря</text></g></g><g transform="translate(10,-61) scale(1,1)"><path fill="#C0C0C0" stroke="none" d="M 66 539 C 66 529.6111584 130.2471312 522 209.5 522 C 288.7528688 522 353 529.6111584 353 539 C 353 548.3888416 288.7528688 556 209.5 556 C 130.2471312 556 66 548.3888416 66 539 Z" opacity="0.2"/></g><g transform="translate(10,-61) scale(1,1)"><path fill="#ffffff" stroke="none" d="M 59 532 C 59 522.6111584 123.2471312 515 202.5 515 C 281.7528688 515 346 522.6111584 346 532 C 346 541.3888416 281.7528688 549 202.5 549 C 123.2471312 549 59 541.3888416 59 532 Z"/></g><g transform="translate(10,-61) scale(1,1)"><path fill="none" stroke="#000000" d="M 59 532 C 59 522.6111584 123.2471312 515 202.5 515 C 281.7528688 515 346 522.6111584 346 532 C 346 541.3888416 281.7528688 549 202.5 549 C 123.2471312 549 59 541.3888416 59 532 Z" stroke-miterlimit="10"/></g><g transform="translate(10,-61) scale(1,1)"><g><path fill="none" stroke="none"/><text fill="#000000" stroke="none" font-family="Arial" font-size="13px" font-style="normal" font-weight="bold" text-decoration="none" x="118" y="539">Просмотр диаграммы Ганта</text></g></g><g transform="translate(10,-61) scale(1,1)"><path fill="#C0C0C0" stroke="none" d="M 7 613 C 7 603.6111584 99.900904 596 214.5 596 C 329.09909600000003 596 422 603.6111584 422 613 C 422 622.3888416 329.09909600000003 630 214.5 630 C 99.900904 630 7 622.3888416 7 613 Z" opacity="0.2"/></g><g transform="translate(10,-61) scale(1,1)"><path fill="#ffffff" stroke="none" d="M 0 606 C 0 596.6111584 92.900904 589 207.5 589 C 322.09909600000003 589 415 596.6111584 415 606 C 415 615.3888416 322.09909600000003 623 207.5 623 C 92.900904 623 0 615.3888416 0 606 Z"/></g><g transform="translate(10,-61) scale(1,1)"><path fill="none" stroke="#000000" d="M 0 606 C 0 596.6111584 92.900904 589 207.5 589 C 322.09909600000003 589 415 596.6111584 415 606 C 415 615.3888416 322.09909600000003 623 207.5 623 C 92.900904 623 0 615.3888416 0 606 Z" stroke-miterlimit="10"/></g><g transform="translate(10,-61) scale(1,1)"><g><path fill="none" stroke="none"/><text fill="#000000" stroke="none" font-family="Arial" font-size="13px" font-style="normal" font-weight="bold" text-decoration="none" x="83" y="613">Построение графиков ресурса за период</text></g></g><g transform="translate(10,-61) scale(1,1)"><path fill="#C0C0C0" stroke="none" d="M 539 391 C 539 381.6111584 608.8435712 374 695 374 C 781.1564288 374 851 381.6111584 851 391 C 851 400.3888416 781.1564288 408 695 408 C 608.8435712 408 539 400.3888416 539 391 Z" opacity="0.2"/></g><g transform="translate(10,-61) scale(1,1)"><path fill="#ffffff" stroke="none" d="M 532 384 C 532 374.6111584 601.8435712 367 688 367 C 774.1564288 367 844 374.6111584 844 384 C 844 393.3888416 774.1564288 401 688 401 C 601.8435712 401 532 393.3888416 532 384 Z"/></g><g transform="translate(10,-61) scale(1,1)"><path fill="none" stroke="#000000" d="M 532 384 C 532 374.6111584 601.8435712 367 688 367 C 774.1564288 367 844 374.6111584 844 384 C 844 393.3888416 774.1564288 401 688 401 C 601.8435712 401 532 393.3888416 532 384 Z" stroke-miterlimit="10" stroke-dasharray="5"/></g><g transform="translate(10,-61) scale(1,1)"><g><path fill="none" stroke="none"/><text fill="#000000" stroke="none" font-family="Arial" font-size="13px" font-style="normal" font-weight="bold" text-decoration="none" x="595.5" y="391">Просмотр рабочего календаря</text></g></g><g transform="translate(10,-61) scale(1,1)"><path fill="#C0C0C0" stroke="none" d="M 526 465 C 526 455.6111584 603.0070144 448 698 448 C 792.9929856 448 870 455.6111584 870 465 C 870 474.3888416 792.9929856 482 698 482 C 603.0070144 482 526 474.3888416 526 465 Z" opacity="0.2"/></g><g transform="translate(10,-61) scale(1,1)"><path fill="#ffffff" stroke="none" d="M 519 458 C 519 448.6111584 596.0070144 441 691 441 C 785.9929856 441 863 448.6111584 863 458 C 863 467.3888416 785.9929856 475 691 475 C 596.0070144 475 519 467.3888416 519 458 Z"/></g><g transform="translate(10,-61) scale(1,1)"><path fill="none" stroke="#000000" d="M 519 458 C 519 448.6111584 596.0070144 441 691 441 C 785.9929856 441 863 448.6111584 863 458 C 863 467.3888416 785.9929856 475 691 475 C 596.0070144 475 519 467.3888416 519 458 Z" stroke-miterlimit="10" stroke-dasharray="5"/></g><g transform="translate(10,-61) scale(1,1)"><g><path fill="none" stroke="none"/><text fill="#000000" stroke="none" font-family="Arial" font-size="13px" font-style="normal" font-weight="bold" text-decoration="none" x="588.5" y="465">Составление рабочего календаря</text></g></g><g transform="translate(10,-61) scale(1,1)"><path fill="#C0C0C0" stroke="none" d="M 487 613 C 487 603.6111584 582.3633376 596 700 596 C 817.6366624 596 913 603.6111584 913 613 C 913 622.3888416 817.6366624 630 700 630 C 582.3633376 630 487 622.3888416 487 613 Z" opacity="0.2"/></g><g transform="translate(10,-61) scale(1,1)"><path fill="#ffffff" stroke="none" d="M 480 606 C 480 596.6111584 575.3633376 589 693 589 C 810.6366624 589 906 596.6111584 906 606 C 906 615.3888416 810.6366624 623 693 623 C 575.3633376 623 480 615.3888416 480 606 Z"/></g><g transform="translate(10,-61) scale(1,1)"><path fill="none" stroke="#000000" d="M 480 606 C 480 596.6111584 575.3633376 589 693 589 C 810.6366624 589 906 596.6111584 906 606 C 906 615.3888416 810.6366624 623 693 623 C 575.3633376 623 480 615.3888416 480 606 Z" stroke-miterlimit="10" stroke-dasharray="5"/></g><g transform="translate(10,-61) scale(1,1)"><g><path fill="none" stroke="none"/><text fill="#000000" stroke="none" font-family="Arial" font-size="13px" font-style="normal" font-weight="bold" text-decoration="none" x="565" y="613">Постороение графиков ресурса за период</text></g></g><g transform="translate(10,-61) scale(1,1)"><path fill="#C0C0C0" stroke="none" d="M 552 539 C 552 529.6111584 616.2471312 522 695.5 522 C 774.7528688 522 839 529.6111584 839 539 C 839 548.3888416 774.7528688 556 695.5 556 C 616.2471312 556 552 548.3888416 552 539 Z" opacity="0.2"/></g><g transform="translate(10,-61) scale(1,1)"><path fill="#ffffff" stroke="none" d="M 545 532 C 545 522.6111584 609.2471312 515 688.5 515 C 767.7528688 515 832 522.6111584 832 532 C 832 541.3888416 767.7528688 549 688.5 549 C 609.2471312 549 545 541.3888416 545 532 Z"/></g><g transform="translate(10,-61) scale(1,1)"><path fill="none" stroke="#000000" d="M 545 532 C 545 522.6111584 609.2471312 515 688.5 515 C 767.7528688 515 832 522.6111584 832 532 C 832 541.3888416 767.7528688 549 688.5 549 C 609.2471312 549 545 541.3888416 545 532 Z" stroke-miterlimit="10" stroke-dasharray="5"/></g><g transform="translate(10,-61) scale(1,1)"><g><path fill="none" stroke="none"/><text fill="#000000" stroke="none" font-family="Arial" font-size="13px" font-style="normal" font-weight="bold" text-decoration="none" x="604" y="539">Просмотр диаграммы Ганта</text></g></g><g transform="translate(10,-61) scale(1,1)"><path fill="none" stroke="#000000" d="M 564 236 L 322 236" stroke-miterlimit="10" stroke-dasharray="3"/></g><g transform="translate(10,-61) scale(1,1)"><path fill="none" stroke="#000000" d="M 332.16267485762415 231.790482243984 L 322 236 L 332.16267485762415 240.209517756016" stroke-miterlimit="10"/></g><g transform="translate(10,-61) scale(1,1)"><g><path fill="none" stroke="none"/><text fill="#000000" stroke="none" font-family="Arial" font-size="13px" font-style="normal" font-weight="normal" text-decoration="none" x="421" y="261">«trace»</text></g></g><g transform="translate(10,-61) scale(1,1)"><path fill="none" stroke="#000000" d="M 531 310 L 358 310" stroke-miterlimit="10" stroke-dasharray="3"/></g><g transform="translate(10,-61) scale(1,1)"><path fill="none" stroke="#000000" d="M 368.16267485762415 305.790482243984 L 358 310 L 368.16267485762415 314.209517756016" stroke-miterlimit="10"/></g><g transform="translate(10,-61) scale(1,1)"><g><path fill="none" stroke="none"/><text fill="#000000" stroke="none" font-family="Arial" font-size="13px" font-style="normal" font-weight="normal" text-decoration="none" x="422" y="333">«trace»</text></g></g><g transform="translate(10,-61) scale(1,1)"><path fill="none" stroke="#000000" d="M 531 384 L 359 384" stroke-miterlimit="10" stroke-dasharray="3"/></g><g transform="translate(10,-61) scale(1,1)"><path fill="none" stroke="#000000" d="M 369.16267485762415 379.790482243984 L 359 384 L 369.16267485762415 388.209517756016" stroke-miterlimit="10"/></g><g transform="translate(10,-61) scale(1,1)"><g><path fill="none" stroke="none"/><text fill="#000000" stroke="none" font-family="Arial" font-size="13px" font-style="normal" font-weight="normal" text-decoration="none" x="423" y="397">«trace»</text></g></g><g transform="translate(10,-61) scale(1,1)"><path fill="none" stroke="#000000" d="M 518 458 L 378 458" stroke-miterlimit="10" stroke-dasharray="3"/></g><g transform="translate(10,-61) scale(1,1)"><path fill="none" stroke="#000000" d="M 388.16267485762415 453.790482243984 L 378 458 L 388.16267485762415 462.209517756016" stroke-miterlimit="10"/></g><g transform="translate(10,-61) scale(1,1)"><g><path fill="none" stroke="none"/><text fill="#000000" stroke="none" font-family="Arial" font-size="13px" font-style="normal" font-weight="normal" text-decoration="none" x="420" y="477">«trace»</text></g></g><g transform="translate(10,-61) scale(1,1)"><path fill="none" stroke="#000000" d="M 544 532 L 347 532" stroke-miterlimit="10" stroke-dasharray="3"/></g><g transform="translate(10,-61) scale(1,1)"><path fill="none" stroke="#000000" d="M 357.16267485762415 527.790482243984 L 347 532 L 357.16267485762415 536.209517756016" stroke-miterlimit="10"/></g><g transform="translate(10,-61) scale(1,1)"><g><path fill="none" stroke="none"/><text fill="#000000" stroke="none" font-family="Arial" font-size="13px" font-style="normal" font-weight="normal" text-decoration="none" x="425" y="548">«trace»</text></g></g><g transform="translate(10,-61) scale(1,1)"><path fill="none" stroke="#000000" d="M 479 606 L 416 606" stroke-miterlimit="10" stroke-dasharray="3"/></g><g transform="translate(10,-61) scale(1,1)"><path fill="none" stroke="#000000" d="M 426.16267485762415 601.790482243984 L 416 606 L 426.16267485762415 610.209517756016" stroke-miterlimit="10"/></g><g transform="translate(10,-61) scale(1,1)"><g><path fill="none" stroke="none"/><text fill="#000000" stroke="none" font-family="Arial" font-size="13px" font-style="normal" font-weight="normal" text-decoration="none" x="425" y="621">«trace»</text></g></g></g></svg>